<svg xmlns="http://www.w3.org/2000/svg" width="24" height="24" viewBox="0 0 24 24"><path d="M19.4 13l.1-1v-1l2-1.6c.2-.2.3-.5.2-.7l-2-3.4c-.2-.3-.4-.3-.6-.3l-2.5 1-1.7-1-.4-2.6c0-.2-.3-.4-.5-.4h-4c-.3 0-.5.2-.5.4l-.4 2.7c-.6.2-1.1.6-1.7 1L5 5c-.2-.1-.4 0-.6.2l-2 3.4c0 .3 0 .5.2.7l2 1.6a8 8 0 000 2l-2 1.6c-.2.2-.3.5-.2.7l2 3.4c.2.3.4.3.6.3l2.5-1 1.7 1 .4 2.6c0 .2.2.4.5.4h4c.3 0 .5-.2.5-.4l.4-2.7c.6-.2 1.1-.6 1.7-1l2.5 1c.2.1.4 0 .6-.2l2-3.4c0-.2 0-.5-.2-.7l-2-1.6zM12 15.5a3.5 3.5 0 110-7 3.5 3.5 0 010 7z"/></svg>